<?xml version="1.0" encoding="utf-8"?>
<!-- Generator: Adobe Illustrator 27.7.0, SVG Export Plug-In . SVG Version: 6.00 Build 0)  -->
<svg version="1.1" id="Layer_1" xmlns="http://www.w3.org/2000/svg" xmlns:xlink="http://www.w3.org/1999/xlink" x="0px" y="0px"
	 viewBox="0 0 83.5 39.9" style="enable-background:new 0 0 83.5 39.9;" xml:space="preserve">
<style type="text/css">
	.st0{display:none;}
	.st1{display:inline;fill:#024153;}
	.st2{fill-rule:evenodd;clip-rule:evenodd;fill:#00B488;}
	.st3{fill-rule:evenodd;clip-rule:evenodd;fill:#0781A5;}
	.st4{fill:#024153;}
</style>
<g class="st0">
	<path class="st1" d="M24.3,53.5V42.4h2.1c1.6,0,2.7,0.1,3.3,0.2c0.6,0.2,1.2,0.4,1.7,0.8c0.6,0.5,1.1,1.1,1.4,1.9
		c0.3,0.8,0.5,1.6,0.5,2.6s-0.2,1.9-0.5,2.6c-0.3,0.8-0.8,1.4-1.5,1.9c-0.5,0.4-1,0.6-1.7,0.8c-0.6,0.2-1.6,0.2-2.9,0.2h-0.5
		L24.3,53.5L24.3,53.5z M25.7,52.2h0.8c1.4,0,2.3-0.1,2.8-0.2c0.5-0.1,1-0.3,1.3-0.6c0.5-0.4,0.8-0.9,1-1.5c0.2-0.6,0.4-1.3,0.4-2.1
		s-0.1-1.5-0.4-2.1c-0.2-0.6-0.6-1.1-1-1.5c-0.3-0.3-0.8-0.5-1.3-0.6s-1.5-0.2-2.8-0.2h-0.8C25.7,43.4,25.7,52.2,25.7,52.2z"/>
	<path class="st1" d="M35.6,53.5V42.4h5.8v1.2h-4.5v3.2h4.5V48h-4.5v4.3h4.5v1.2C41.4,53.5,35.6,53.5,35.6,53.5z"/>
	<path class="st1" d="M47.7,47.3c0.7,0.3,1.3,0.7,1.6,1.2c0.4,0.5,0.5,1.1,0.5,1.8c0,1-0.3,1.8-1,2.5c-0.6,0.6-1.5,0.9-2.6,0.9
		c-0.9,0-1.6-0.2-2.2-0.7c-0.6-0.4-1-1.1-1.2-1.9l1.2-0.6c0.2,0.7,0.4,1.2,0.8,1.5c0.4,0.3,0.8,0.5,1.4,0.5c0.7,0,1.2-0.2,1.6-0.6
		c0.4-0.4,0.6-0.9,0.6-1.5c0-0.5-0.1-0.9-0.4-1.3c-0.2-0.2-0.6-0.5-1.2-0.8l-1.4-0.6c-0.7-0.3-1.3-0.7-1.6-1.2
		c-0.4-0.5-0.5-1.1-0.5-1.7c0-0.8,0.3-1.4,0.9-2c0.6-0.5,1.3-0.8,2.2-0.8c0.7,0,1.2,0.1,1.7,0.4c0.5,0.3,0.9,0.7,1.1,1.2l-1.1,0.7
		c-0.2-0.4-0.5-0.8-0.8-1s-0.7-0.3-1-0.3c-0.5,0-0.9,0.2-1.2,0.5s-0.5,0.7-0.5,1.2c0,0.4,0.1,0.7,0.4,1c0.2,0.3,0.6,0.5,1.1,0.8
		L47.7,47.3z"/>
	<path class="st1" d="M61.8,47.7h4.6v0.4c0,1.7-0.5,3.1-1.5,4.1c-1,1-2.3,1.5-4.1,1.5c-0.5,0-1-0.1-1.5-0.2
		c-0.5-0.1-0.9-0.3-1.3-0.5c-0.9-0.5-1.6-1.2-2.1-2.1c-0.5-0.9-0.7-1.9-0.7-3c0-0.9,0.1-1.8,0.4-2.5c0.3-0.7,0.7-1.4,1.3-2
		c0.5-0.5,1.1-0.8,1.7-1.1c0.7-0.2,1.4-0.4,2.2-0.4c1.1,0,2,0.2,2.8,0.6c0.8,0.4,1.4,1,1.9,1.7l-1.1,0.9c-0.4-0.7-0.9-1.2-1.5-1.5
		s-1.3-0.5-2.1-0.5c-1.3,0-2.3,0.4-3.1,1.3c-0.8,0.9-1.2,2-1.2,3.4c0,1.3,0.4,2.4,1.2,3.3c0.8,0.8,1.9,1.3,3.1,1.3
		c1.1,0,2-0.3,2.8-1c0.7-0.7,1.1-1.6,1.2-2.6h-3V47.7z"/>
	<path class="st1" d="M68.3,53.5V41.9l8.1,8.9v-8.4h1.3v11.5l-8.1-8.8v8.3L68.3,53.5L68.3,53.5z"/>
</g>
<g>
	<path class="st2" d="M73.6,3.4c0,0-10.6-7.3-23.6-0.4C37.2,9.7,25.2,3.6,23.5,2.3C18.7-1.4,4.8,0,1.6,4.3L6,6.5
		c0,0,9.1-4.3,17.4-1.3c6,2.1,13.3,10.5,30,0.6c16.6-9.8,26.1,3.8,26.1,4.7L73.6,3.4z"/>
	<path class="st3" d="M11.6,11.8c0,0,10.1-8.1,23.5-2.1c13.3,5.9,24.9-1,26.5-2.4C66.1,3.1,80,3.5,83.5,7.7l-4.3,2.4
		c0,0-9.4-3.6-17.4-0.2c-5.8,2.6-12.6,11.3-29.8,2.7C14.8,4.1,6.4,18.3,6.4,19.1L11.6,11.8z"/>
	<path class="st2" d="M5.3,15.8c0,0,10.1-8,23.5-2.1c13.3,5.9,24.9-1,26.5-2.4c4.5-4.1,18.4-3.6,22,0.4L73,14.1
		c0,0-9.4-3.6-17.4-0.2c-6,2.7-12.7,11.4-30,2.7C8.5,8.1,0,22.3,0,23.2L5.3,15.8z"/>
</g>
<g>
	<path class="st4" d="M28.9,27.6c-1.7-1.6-3.4-1.7-4.3-1.7c-3.4,0-5.7,2.5-5.7,6c0,3.3,2.4,5.9,5.8,5.9c1.9,0,3.4-1,4.3-1.8v2.9
		c-1.6,0.9-3.2,1.2-4.3,1.2c-2.9,0-4.7-1.3-5.6-2.2c-1.8-1.7-2.5-3.7-2.5-6c0-2.9,1.2-4.9,2.5-6.2c1.6-1.5,3.5-2.1,5.7-2.1
		c1.4,0,2.8,0.3,4.2,1.1V27.6z"/>
	<path class="st4" d="M43.7,26.1v13.5h-2.4V26.1h-3.6v-2.3h9.6v2.3H43.7z"/>
	<path class="st4" d="M59.5,23.9c1.9,0,3.1,0.2,4.2,0.9c1.7,1.2,1.9,3,1.9,3.7c0,2.3-1.4,3.9-3.5,4.4l4.9,6.7h-2.9l-4.5-6.5h-0.4
		v6.5h-2.4V23.9H59.5z M59.1,31.1h0.8c0.7,0,3.4-0.1,3.4-2.6c0-2.2-2.1-2.4-3.3-2.4h-0.8V31.1z"/>
</g>
</svg>
